<?xml version="1.0" standalone="no"?>
<!DOCTYPE svg PUBLIC "-//W3C//DTD SVG 20010904//EN"
 "http://www.w3.org/TR/2001/REC-SVG-20010904/DTD/svg10.dtd">
<svg version="1.0" xmlns="http://www.w3.org/2000/svg"
 width="300.000000pt" height="300.000000pt" viewBox="0 0 300.000000 300.000000"
 preserveAspectRatio="xMidYMid meet">
<metadata>
Created by potrace 1.10, written by Peter Selinger 2001-2011
</metadata>
<g transform="translate(0.000000,300.000000) scale(0.100000,-0.100000)"
fill="#000000" stroke="none">
<path d="M1943 1934 c-64 -24 -130 -89 -157 -157 l-23 -57 -19 41 c-25 56 -88
119 -149 149 -45 21 -66 24 -205 28 -147 4 -156 3 -182 -18 -26 -20 -28 -27
-28 -96 0 -75 -10 -92 -31 -51 -19 35 -59 80 -98 108 -60 44 -129 59 -276 59
-119 0 -135 -2 -159 -21 l-26 -20 0 -363 0 -363 23 -21 c19 -18 35 -22 88 -22
94 0 107 16 111 135 l3 89 82 12 c53 7 97 20 126 37 47 28 111 93 129 132 6
14 15 22 19 19 5 -3 9 -90 9 -193 0 -183 1 -188 23 -209 19 -18 35 -22 88 -22
56 0 69 4 87 23 19 20 22 35 22 103 0 43 4 84 8 90 4 6 35 14 70 17 91 10 154
40 212 104 36 39 55 70 66 111 l17 57 21 -30 c41 -58 93 -101 183 -148 97 -50
118 -68 110 -91 -13 -34 -97 -23 -160 21 l-39 27 -44 -24 c-48 -25 -104 -82
-104 -105 0 -33 67 -101 134 -135 63 -32 76 -35 155 -34 70 0 96 5 141 25 98
46 149 113 157 211 11 120 -50 202 -217 288 -57 29 -99 57 -97 63 7 23 65 19
110 -8 l44 -25 48 32 c66 45 89 77 76 109 -15 40 -60 88 -104 111 -55 28 -185
34 -244 12z m223 -48 c44 -20 70 -45 97 -92 4 -7 -17 -27 -49 -48 l-56 -37
-24 25 c-32 31 -74 41 -119 26 -40 -13 -59 -41 -51 -75 4 -17 32 -35 110 -73
162 -78 216 -139 216 -241 0 -129 -102 -213 -259 -214 -96 0 -164 27 -221 90
l-41 44 60 44 60 44 34 -34 c55 -55 173 -58 211 -4 30 44 -4 81 -144 155 -50
26 -106 63 -125 83 -105 104 -49 275 105 322 54 16 143 10 196 -15z m-1210 -1
c93 -27 167 -113 180 -208 13 -94 -43 -193 -135 -239 -47 -24 -66 -28 -143
-28 l-89 0 3 -120 3 -120 -75 0 -75 0 3 365 2 365 138 0 c93 0 155 -5 188 -15z
m593 -1 c61 -18 123 -70 154 -128 29 -56 29 -156 0 -211 -50 -94 -126 -134
-256 -135 l-89 0 4 -120 3 -120 -72 0 -73 0 0 365 0 365 138 0 c96 0 154 -5
191 -16z"/>
<path d="M770 1649 l0 -101 81 4 c77 3 82 5 110 36 31 35 36 66 17 107 -18 39
-57 55 -138 55 l-70 0 0 -101z m155 36 c30 -29 30 -36 8 -64 -22 -26 -86 -39
-108 -21 -18 15 -20 81 -3 98 21 21 77 14 103 -13z"/>
<path d="M1360 1649 l0 -101 81 4 c77 3 82 5 110 36 19 21 29 43 29 63 0 70
-44 99 -150 99 l-70 0 0 -101z m154 40 c33 -26 33 -43 1 -75 -20 -20 -34 -25
-63 -22 -36 3 -37 4 -40 47 -2 24 -1 50 2 57 8 21 69 17 100 -7z"/>
</g>
</svg>
